<svg width="168" height="42" viewBox="0 0 168 42" fill="none" xmlns="http://www.w3.org/2000/svg">
<g clip-path="url(#clip0_1_29)">
<path d="M18.9709 13.8077C20.0307 14.5418 20.8609 15.4681 21.4968 16.6217C22.1327 17.7753 22.4506 19.0162 22.4506 20.362V20.4319C22.4506 21.5331 22.2387 22.5643 21.8147 23.543C21.3908 24.5218 20.8079 25.3608 20.0837 26.0774C19.3418 26.794 18.494 27.3533 17.5224 27.7728C16.5509 28.1922 15.5088 28.402 14.4136 28.402H6.55325L8.44328 23.7178H14.396C15.3145 23.7178 16.0917 23.4032 16.7452 22.7565C17.3811 22.1273 17.7167 21.3408 17.7167 20.4319V20.362C17.7167 19.4532 17.3988 18.6841 16.7452 18.0374C16.1093 17.4082 15.3145 17.0761 14.396 17.0761H4.73389V28.402H0V1.08362H12.4706C13.5834 1.08362 14.6256 1.29336 15.6148 1.71283C16.6039 2.13231 17.4518 2.70909 18.176 3.42569C18.9002 4.15977 19.4655 4.99872 19.8894 5.96002C20.3133 6.92132 20.5253 7.95253 20.5253 9.03618V9.10609C20.5253 9.99748 20.384 10.8364 20.119 11.6229C19.8364 12.4095 19.4655 13.1435 18.9885 13.7902L18.9709 13.8077ZM15.7737 9.03618C15.7737 8.12731 15.4558 7.35827 14.8022 6.71158C14.1663 6.08237 13.3715 5.75029 12.453 5.75029H4.73389V12.392H12.4706C13.3891 12.392 14.1663 12.0774 14.8199 11.4307C15.4735 10.784 15.7914 10.015 15.7914 9.10609V9.03618H15.7737Z" fill="white"/>
<path d="M26.3896 28.402V1.08362H31.1235V28.4194H26.3896V28.402Z" fill="white"/>
<path d="M55.517 8.84392V28.402H50.7831V18.6492C50.7831 17.0936 50.2355 15.7653 49.1227 14.6641C48.0099 13.563 46.6851 13.0212 45.0954 13.0212C44.3358 13.0212 43.5939 13.161 42.9051 13.4582C42.2162 13.7378 41.5979 14.1398 41.068 14.6641C39.9552 15.7653 39.4076 17.0761 39.4076 18.6492C39.4076 20.2222 39.9552 21.4981 41.068 22.5992C41.5979 23.1411 42.1985 23.5605 42.9051 23.8227C43.5939 24.1024 44.3358 24.2247 45.0954 24.2247C45.8549 24.2247 46.5968 24.1024 47.2327 23.8402L48.9284 28.0175C47.7096 28.6117 46.3142 28.9088 44.7068 28.9088C43.2583 28.9088 41.9335 28.6467 40.6971 28.1048C39.4783 27.5805 38.4185 26.8289 37.5176 25.9026C36.6168 24.9588 35.9279 23.8751 35.4333 22.6167C34.9387 21.3583 34.6914 20.0474 34.6914 18.6317C34.6914 17.216 34.9387 15.8527 35.4333 14.6117C35.9279 13.3708 36.6344 12.2696 37.5176 11.3258C38.4185 10.382 39.4783 9.64792 40.6971 9.12357C41.9159 8.58175 43.2583 8.31958 44.7068 8.31958C45.9962 8.31958 47.1444 8.51184 48.1335 8.91384C49.1404 9.29836 50.0059 9.80522 50.7831 10.3995V8.84392H55.517Z" fill="white"/>
<path d="M75.8656 12.0774L66.3625 23.7178H75.4064V28.402H59.0674V25.2559L68.5705 13.6155H59.8976V8.89636H72.5272V8.93132H75.8833V12.0949L75.8656 12.0774Z" fill="white"/>
<path d="M93.8294 20.9912H83.4961C83.7611 21.5855 84.132 22.1273 84.6443 22.5992C85.1919 23.1411 85.8101 23.5605 86.499 23.8227C87.1879 24.1024 87.9121 24.2247 88.6716 24.2247C89.7491 24.2247 90.703 23.98 91.5508 23.4906L96.479 25.4482C95.5252 26.5493 94.3947 27.3882 93.0522 28C91.7098 28.6117 90.2437 28.9088 88.6716 28.9088C87.2232 28.9088 85.8631 28.6467 84.609 28.1048C83.3372 27.5805 82.242 26.8289 81.2882 25.9026C80.3343 24.9588 79.5924 23.8751 79.0625 22.6167C78.515 21.3583 78.25 20.0474 78.25 18.6317C78.25 17.216 78.515 15.8527 79.0625 14.6117C79.5924 13.3708 80.352 12.2696 81.2882 11.3258C82.2243 10.382 83.3372 9.64792 84.609 9.12357C85.8631 8.58175 87.2232 8.31958 88.6716 8.31958C90.12 8.31958 91.4802 8.58175 92.7343 9.12357C94.0061 9.6654 95.1012 10.3995 96.0551 11.3258C97.0089 12.2696 97.7508 13.3533 98.2807 14.6117C98.8106 15.8527 99.0932 17.1985 99.0932 18.6317C99.0932 19.4706 99.0049 20.2397 98.8106 20.9738H93.8471L93.8294 20.9912ZM88.654 13.0212C87.1349 13.0212 85.7924 13.563 84.6266 14.6641C84.132 15.1535 83.7434 15.7128 83.4785 16.3071H93.8118C93.5468 15.7128 93.1582 15.1535 92.6636 14.6641C91.5508 13.563 90.226 13.0212 88.6363 13.0212H88.654Z" fill="white"/>
<path d="M109.921 16.3072C110.239 16.3771 110.769 16.5693 111.493 16.849C112.235 17.1286 112.977 17.5306 113.754 18.0375C114.531 18.5444 115.203 19.1736 115.786 19.9251C116.369 20.6767 116.651 21.5856 116.651 22.6168C116.651 23.5256 116.492 24.3646 116.192 25.1161C115.892 25.8677 115.45 26.5319 114.867 27.1087C114.284 27.6854 113.578 28.1224 112.73 28.437C111.882 28.7516 110.946 28.9089 109.886 28.9089C108.278 28.9089 106.795 28.6292 105.399 28.0525C104.022 27.4757 102.909 26.7766 102.061 25.9376L105.329 22.7042C106.018 23.5082 106.742 24.0325 107.519 24.2597C108.296 24.4869 108.95 24.6093 109.48 24.6093C110.292 24.6093 110.893 24.452 111.299 24.1374C111.688 23.8228 111.882 23.4557 111.882 23.0013C111.882 22.6867 111.758 22.407 111.493 22.1798C111.228 21.9526 110.928 21.7429 110.557 21.603C110.204 21.4457 109.833 21.3234 109.48 21.236C109.126 21.1486 108.808 21.0612 108.579 20.9738C108.261 20.8689 107.731 20.6942 106.989 20.432C106.247 20.1698 105.47 19.8028 104.693 19.2959C103.916 18.8065 103.244 18.1773 102.661 17.4258C102.079 16.6742 101.796 15.7653 101.796 14.6992C101.796 13.633 101.99 12.6717 102.361 11.8677C102.75 11.0812 103.244 10.417 103.88 9.89267C104.516 9.36832 105.24 8.98381 106.053 8.73911C106.865 8.49442 107.713 8.37207 108.579 8.37207C109.921 8.37207 111.052 8.52937 111.988 8.84398C112.924 9.15859 113.684 9.49067 114.302 9.85771C114.991 10.2947 115.556 10.8015 116.033 11.3434L112.712 14.6292C112.182 13.9476 111.599 13.4582 110.981 13.1436C110.345 12.829 109.674 12.6717 108.967 12.6717C108.42 12.6717 107.872 12.794 107.325 13.0562C106.777 13.3184 106.512 13.7379 106.512 14.2972C106.512 14.6118 106.636 14.8739 106.865 15.1012C107.095 15.3284 107.395 15.5032 107.731 15.643C108.067 15.7828 108.437 15.9052 108.808 16.01C109.197 16.1149 109.533 16.2023 109.851 16.2897L109.921 16.3072Z" fill="white"/>
<path d="M151.096 6.1348C150.531 6.3795 150.036 6.71158 149.594 7.13106C149.153 7.55053 148.817 8.03992 148.552 8.59922C148.287 9.15852 148.164 9.77026 148.164 10.417H150.972L152.156 15.1011H148.164V28.4194H143.43V10.3995C143.447 9.15852 143.712 7.95253 144.172 6.83393C144.631 5.71533 145.337 4.7016 146.221 3.81021C147.121 2.91882 148.146 2.25465 149.294 1.78274C150.46 1.31083 151.661 1.08362 152.915 1.08362V5.76776C152.262 5.76776 151.643 5.89011 151.078 6.1348H151.096Z" fill="white"/>
<path d="M167.682 28.402H163.337C162.436 28.402 161.606 28.2272 160.811 27.8951C160.016 27.563 159.345 27.0911 158.762 26.5143C158.179 25.9201 157.72 25.2384 157.384 24.4694C157.049 23.6829 156.872 22.8614 156.872 21.97V4.9463L161.606 3.77527V11.2384H164.362L165.545 15.9226H161.606V21.97C161.606 22.4594 161.783 22.8789 162.118 23.211C162.454 23.5431 162.86 23.7178 163.337 23.7178H166.499L167.682 28.402Z" fill="white"/>
<path d="M126.755 28.8564C132.355 30.412 138.149 27.1785 139.721 21.6379C140.48 18.9813 140.586 15.2409 137.919 11.4307C135.676 8.21471 132.991 7.48063 132.655 5.3483C131.313 8.19723 132.549 10.3645 133.856 12.0424C130.377 10.6267 131.083 8.1448 129.034 5.29586C127.038 2.51683 123.682 -0.209756 117.871 -0.0174968C123.576 3.30335 123.258 10.382 122.958 12.4969C122.216 10.9588 119.831 7.90011 116.97 7.81272C120.944 12.392 118.03 16.1848 119.319 21.0087C120.132 24.6442 122.887 27.7378 126.755 28.8215V28.8564ZM124.636 21.6554C123.134 18.9987 124.071 15.6429 126.755 14.1398C129.44 12.6367 132.832 13.5805 134.351 16.2372C135.87 18.8939 134.916 22.2497 132.231 23.7528C129.546 25.2559 126.155 24.3121 124.636 21.6554Z" fill="url(#paint0_linear_1_29)"/>
</g>
<defs>
<linearGradient id="paint0_linear_1_29" x1="136.266" y1="8.44342" x2="117.626" y2="19.0407" gradientUnits="userSpaceOnUse">
<stop stop-color="#F89743"/>
<stop offset="1" stop-color="#F15939"/>
</linearGradient>
<clipPath id="clip0_1_29">
<rect width="168" height="42" fill="white"/>
</clipPath>
</defs>
</svg>
